<svg width="25" height="24" viewBox="0 0 25 24" fill="none" xmlns="http://www.w3.org/2000/svg">
<path d="M19.9095 23.5C19.7525 23.5 19.5975 23.45 19.4675 23.356L12.0095 17.928L4.5515 23.358C4.3235 23.522 4.0215 23.548 3.7695 23.418C3.5195 23.291 3.3595 23.033 3.3595 22.751V5.60001C3.3595 4.36001 4.3695 3.35001 5.6095 3.35001H18.4075C19.6475 3.35001 20.6575 4.36001 20.6575 5.60001V22.75C20.6575 23.032 20.4995 23.29 20.2475 23.418C20.1415 23.473 20.0245 23.5 19.9075 23.5H19.9095ZM12.0095 16.25C12.1645 16.25 12.3195 16.298 12.4495 16.394L19.1595 21.277V5.60001C19.1595 5.18801 18.8225 4.85001 18.4095 4.85001H5.6095C5.1965 4.85001 4.8595 5.18801 4.8595 5.60001V21.277L11.5695 16.394C11.6995 16.298 11.8545 16.25 12.0095 16.25V16.25Z" fill="black"/>
</svg>
