<svg width="25" height="24" viewBox="0 0 25 24" fill="none" xmlns="http://www.w3.org/2000/svg">
<path d="M21.0103 7.33701H17.0803L17.4523 3.06501C17.4883 2.65301 17.1823 2.29001 16.7703 2.25301C16.3533 2.22301 15.9943 2.52301 15.9583 2.93601L15.5753 7.33601H9.25531L9.62531 3.06601C9.66231 2.65301 9.35532 2.29001 8.94532 2.25301C8.52532 2.22301 8.16831 2.52301 8.13231 2.93601L7.75031 7.33601H3.79232C3.37832 7.33601 3.04232 7.67301 3.04232 8.08601C3.04232 8.49901 3.37832 8.83601 3.79232 8.83601H7.62032L7.07031 15.163H3.01031C2.59631 15.163 2.26031 15.499 2.26031 15.913C2.26031 16.327 2.59631 16.663 3.01031 16.663H6.94031L6.56832 20.935C6.53232 21.347 6.83831 21.71 7.25031 21.747L7.31632 21.75C7.70132 21.75 8.02831 21.455 8.06231 21.064L8.44532 16.664H14.7653L14.3953 20.934C14.3593 21.347 14.6653 21.71 15.0773 21.747L15.1433 21.75C15.5283 21.75 15.8553 21.455 15.8893 21.064L16.2713 16.664H20.2283C20.6413 16.664 20.9783 16.327 20.9783 15.914C20.9783 15.501 20.6413 15.164 20.2283 15.164H16.4003L16.9503 8.83701H21.0103C21.4243 8.83701 21.7603 8.50101 21.7603 8.08701C21.7603 7.67301 21.4243 7.33701 21.0103 7.33701V7.33701ZM14.8953 15.163H8.57531L9.12531 8.83701H15.4453L14.8953 15.163Z" fill="black"/>
</svg>
