<svg width="24" height="24" viewBox="0 0 24 24" fill="none" xmlns="http://www.w3.org/2000/svg">
<path d="M8.8 7.19995H5.6V3.89995C5.6 3.49995 5.3 3.09995 4.8 3.09995C4.3 3.09995 4.1 3.49995 4.1 3.89995V7.19995H0.8C0.4 7.19995 0 7.49995 0 7.99995C0 8.49995 0.3 8.79995 0.8 8.79995H4.1V12.1C4.1 12.5 4.4 12.9 4.9 12.9C5.4 12.9 5.7 12.6 5.7 12.1V8.69995H9C9.4 8.69995 9.8 8.39995 9.8 7.89995C9.8 7.39995 9.3 7.19995 8.8 7.19995V7.19995ZM23.8 2.29995V2.19995H23.7C23.6 2.19995 14.5 3.39995 9.3 13.9C5.5 21.5 5.7 23.7999 6 23.7999C6.3 23.8999 9.4 17.3 12.7 14.6C17.9 13.5 19.3 11 19.3 11C19.3 11 17.8 11.2 17.2 11.2C16.4 11.2 15.8 11 15.5 10.9C16.8 9.69995 17.9 9.39995 19 9.19995C19.9 8.99995 20.8 8.79995 22 7.99995C24.2 6.39995 23.9 2.49995 23.8 2.29995V2.29995Z" fill="white"/>
</svg>
