<svg width="21" height="20" viewBox="0 0 21 20" fill="none" xmlns="http://www.w3.org/2000/svg">
<path d="M16.1366 8.74309V7.32755H12.4699V12.6567H13.8866V10.9913H15.5532V9.57577H13.8866V8.74309H16.1366V8.74309ZM10.0532 7.32755H11.4699V12.6567H10.0532V7.32755ZM7.05325 8.65982C7.38658 8.65982 7.80325 8.82636 8.05325 9.07616L9.05325 8.24349C8.55325 7.66061 7.80325 7.32755 7.05325 7.32755C5.55325 7.32755 4.38658 8.49329 4.38658 9.9921C4.38658 11.4909 5.55325 12.6567 7.05325 12.6567C7.88658 12.6567 8.55325 12.3236 9.05325 11.7407V9.65903H6.71991V10.6582H7.71991V11.1578C7.55325 11.2411 7.30325 11.3244 7.05325 11.3244C6.30325 11.3244 5.71991 10.7415 5.71991 9.9921C5.71991 9.32596 6.30325 8.65982 7.05325 8.65982V8.65982Z" fill="#1D9BF0"/>
<path d="M17.3866 1.68201H3.21993C2.18659 1.68201 1.34492 2.52051 1.34492 3.55303V16.4653C1.34492 17.4962 2.18659 18.3355 3.21993 18.3355H17.3866C18.4199 18.3355 19.2616 17.4962 19.2616 16.4653V3.55303C19.2616 2.52051 18.4199 1.68201 17.3866 1.68201V1.68201ZM18.0116 16.4653C18.0116 16.8067 17.7316 17.0865 17.3866 17.0865H3.21993C2.87492 17.0865 2.59492 16.8067 2.59492 16.4653V3.55303C2.59492 3.20996 2.87492 2.93102 3.21993 2.93102H17.3866C17.7316 2.93102 18.0116 3.20996 18.0116 3.55303V16.4653Z" fill="#1D9BF0"/>
</svg>
