<svg width="25" height="24" viewBox="0 0 25 24" fill="none" xmlns="http://www.w3.org/2000/svg">
<g clip-path="url(#clip0)">
<path d="M22.6074 7.35001L12.4944 1.89701C12.1971 1.73701 11.8399 1.73701 11.5436 1.89701L1.43563 7.35001C0.949242 7.61401 0.768099 8.22001 1.03031 8.70601C1.21045 9.04101 1.55572 9.23101 1.911 9.23101C2.07113 9.23101 2.23526 9.19301 2.38638 9.11101L3.12096 8.71501L4.71222 19.965C4.92839 21.179 6.02326 22.027 7.37432 22.027H16.6637C18.0147 22.027 19.1096 21.179 19.3278 19.939L20.917 8.71401L21.6546 9.11201C22.14 9.37501 22.7475 9.19401 23.0097 8.70801C23.2729 8.22201 23.0898 7.61501 22.6054 7.35301L22.6074 7.35001ZM12.019 15.435C10.2226 15.435 8.76643 13.98 8.76643 12.185C8.76643 10.39 10.2226 8.93501 12.019 8.93501C13.8154 8.93501 15.2716 10.39 15.2716 12.185C15.2716 13.98 13.8154 15.435 12.019 15.435Z" fill="black"/>
</g>
<defs>
<clipPath id="clip0">
<rect width="24.019" height="24" fill="white" transform="translate(0.00952148)"/>
</clipPath>
</defs>
</svg>
