<svg width="21" height="20" viewBox="0 0 21 20" fill="none" xmlns="http://www.w3.org/2000/svg">
<path d="M10.3611 18.9433C5.42109 18.9433 1.40276 14.9282 1.40276 9.99208C1.40276 5.05599 5.42109 1.04083 10.3611 1.04083C15.3011 1.04083 19.3194 5.05599 19.3194 9.99208C19.3194 14.9282 15.3011 18.9433 10.3611 18.9433ZM10.3611 2.28984C6.11109 2.28984 2.65276 5.74544 2.65276 9.99208C2.65276 14.2387 6.11109 17.6943 10.3611 17.6943C14.6111 17.6943 18.0694 14.2387 18.0694 9.99208C18.0694 5.74544 14.6111 2.28984 10.3611 2.28984Z" fill="#1D9BF0"/>
<path d="M10.3611 14.2512C8.78442 14.2512 7.33358 13.4602 6.48108 12.1329C6.29442 11.8431 6.37858 11.4584 6.66942 11.2711C6.95942 11.0829 7.34608 11.1678 7.53275 11.4592C8.15525 12.4268 9.21275 13.0039 10.3619 13.0039C11.5111 13.0039 12.5686 12.4268 13.1919 11.4601C13.3786 11.1686 13.7653 11.0854 14.0553 11.2727C14.3469 11.4592 14.4303 11.8456 14.2436 12.1354C13.3894 13.4627 11.9386 14.2545 10.3619 14.2545L10.3611 14.2512Z" fill="#1D9BF0"/>
<path d="M12.6428 9.10613C13.323 9.10613 13.8744 8.55513 13.8744 7.87544C13.8744 7.19574 13.323 6.64474 12.6428 6.64474C11.9625 6.64474 11.4111 7.19574 11.4111 7.87544C11.4111 8.55513 11.9625 9.10613 12.6428 9.10613Z" fill="#1D9BF0"/>
<path d="M8.07941 9.10613C8.75965 9.10613 9.31108 8.55513 9.31108 7.87544C9.31108 7.19574 8.75965 6.64474 8.07941 6.64474C7.39918 6.64474 6.84775 7.19574 6.84775 7.87544C6.84775 8.55513 7.39918 9.10613 8.07941 9.10613Z" fill="#1D9BF0"/>
</svg>
