<svg width="25" height="24" viewBox="0 0 25 24" fill="none" xmlns="http://www.w3.org/2000/svg">
<path d="M19.7595 22H4.25952C3.01952 22 2.00952 20.99 2.00952 19.75V4.25C2.00952 3.01 3.01952 2 4.25952 2H19.7595C20.9995 2 22.0095 3.01 22.0095 4.25V19.75C22.0095 20.99 20.9995 22 19.7595 22ZM4.25952 3.5C3.84552 3.5 3.50952 3.837 3.50952 4.25V19.75C3.50952 20.163 3.84552 20.5 4.25952 20.5H19.7595C20.1735 20.5 20.5095 20.163 20.5095 19.75V4.25C20.5095 3.837 20.1735 3.5 19.7595 3.5H4.25952Z" fill="black"/>
<path d="M17.0095 8.64H7.00952C6.59552 8.64 6.25952 8.303 6.25952 7.89C6.25952 7.477 6.59552 7.14 7.00952 7.14H17.0095C17.4235 7.14 17.7595 7.475 17.7595 7.89C17.7595 8.305 17.4235 8.64 17.0095 8.64ZM17.0095 12.75H7.00952C6.59552 12.75 6.25952 12.414 6.25952 12C6.25952 11.586 6.59552 11.25 7.00952 11.25H17.0095C17.4235 11.25 17.7595 11.586 17.7595 12C17.7595 12.414 17.4235 12.75 17.0095 12.75ZM12.0095 16.86H7.00952C6.59552 16.86 6.25952 16.525 6.25952 16.11C6.25952 15.695 6.59552 15.36 7.00952 15.36H12.0095C12.4235 15.36 12.7595 15.697 12.7595 16.11C12.7595 16.523 12.4235 16.86 12.0095 16.86Z" fill="black"/>
</svg>
