<svg width="25" height="24" viewBox="0 0 25 24" fill="none" xmlns="http://www.w3.org/2000/svg">
<path d="M19.2603 3.01801H4.76031C3.24331 3.01801 2.01031 4.25201 2.01031 5.77001V18.265C2.01031 19.783 3.24331 21.018 4.76031 21.018H19.2603C20.7773 21.018 22.0103 19.783 22.0103 18.265V5.77001C22.0103 4.25201 20.7773 3.01801 19.2603 3.01801ZM4.76031 4.51801H19.2603C19.9503 4.51801 20.5103 5.07801 20.5103 5.76801V6.48201L12.4603 11.849C12.1873 12.029 11.8343 12.031 11.5603 11.847L3.51031 6.48201V5.76801C3.51031 5.07801 4.07031 4.51801 4.76031 4.51801V4.51801ZM19.2603 19.516H4.76031C4.07031 19.516 3.51031 18.956 3.51031 18.266V8.24001L10.7503 13.07C11.1333 13.326 11.5723 13.454 12.0103 13.454C12.4503 13.454 12.8873 13.326 13.2703 13.071L20.5103 8.24101V18.263C20.5103 18.953 19.9503 19.513 19.2603 19.513V19.516Z" fill="black"/>
</svg>
