<svg width="20" height="20" viewBox="0 0 20 20" fill="none" xmlns="http://www.w3.org/2000/svg">
<g clip-path="url(#clip0)">
<path d="M19.375 2.70833H17.3542V0.6875C17.3542 0.3425 17.0742 0.0625 16.7292 0.0625C16.3842 0.0625 16.1042 0.3425 16.1042 0.6875V2.70833H14.0833C13.7383 2.70833 13.4583 2.98833 13.4583 3.33333C13.4583 3.67833 13.7383 3.95833 14.0833 3.95833H16.1042V5.97917C16.1042 6.32417 16.3842 6.60417 16.7292 6.60417C17.0742 6.60417 17.3542 6.32417 17.3542 5.97917V3.95833H19.375C19.72 3.95833 20 3.67833 20 3.33333C20 2.98833 19.72 2.70833 19.375 2.70833ZM16.7292 8.43833C16.3842 8.43833 16.1042 8.71833 16.1042 9.06333V15.795C16.1042 16.14 15.8233 16.42 15.4792 16.42H3.4125C3.06916 16.42 2.7875 16.14 2.7875 15.795V6.915L8.43583 10.68C8.7425 10.885 9.09416 10.9883 9.44666 10.9883C9.79833 10.9883 10.15 10.885 10.4567 10.68L14.2317 8.16917C14.5117 7.98333 14.5883 7.60583 14.4017 7.32583C14.2158 7.04917 13.8392 6.97167 13.5583 7.15917L9.78333 9.67083C9.57833 9.80583 9.31416 9.80667 9.11 9.67083L2.78833 5.45417V4.58333C2.78833 4.23833 3.06916 3.95833 3.41333 3.95833H10.9917C11.3367 3.95833 11.6167 3.67833 11.6167 3.33333C11.6167 2.98833 11.3367 2.70833 10.9917 2.70833H3.41333C2.38 2.70833 1.53833 3.55 1.53833 4.58333V15.7958C1.53833 16.8292 2.38 17.6708 3.41333 17.6708H15.48C16.5133 17.6708 17.355 16.8292 17.355 15.7958V9.06417C17.355 8.71833 17.0742 8.43917 16.73 8.43917L16.7292 8.43833Z" fill="#0F1419"/>
</g>
<defs>
<clipPath id="clip0">
<rect width="20" height="20" fill="white"/>
</clipPath>
</defs>
</svg>
