<svg width="25" height="24" viewBox="0 0 25 24" fill="none" xmlns="http://www.w3.org/2000/svg">
<path d="M17.0087 13.5C17.8372 13.5 18.5087 12.8284 18.5087 12C18.5087 11.1716 17.8372 10.5 17.0087 10.5C16.1803 10.5 15.5087 11.1716 15.5087 12C15.5087 12.8284 16.1803 13.5 17.0087 13.5Z" fill="black"/>
<path d="M12.0087 13.5C12.8372 13.5 13.5087 12.8284 13.5087 12C13.5087 11.1716 12.8372 10.5 12.0087 10.5C11.1803 10.5 10.5087 11.1716 10.5087 12C10.5087 12.8284 11.1803 13.5 12.0087 13.5Z" fill="black"/>
<path d="M7.00873 13.5C7.83716 13.5 8.50873 12.8284 8.50873 12C8.50873 11.1716 7.83716 10.5 7.00873 10.5C6.1803 10.5 5.50873 11.1716 5.50873 12C5.50873 12.8284 6.1803 13.5 7.00873 13.5Z" fill="black"/>
<path d="M12.0087 22.75C6.08073 22.75 1.25873 17.928 1.25873 12C1.25873 6.072 6.08073 1.25 12.0087 1.25C17.9367 1.25 22.7587 6.072 22.7587 12C22.7587 17.928 17.9367 22.75 12.0087 22.75ZM12.0087 2.75C6.90873 2.75 2.75873 6.9 2.75873 12C2.75873 17.1 6.90873 21.25 12.0087 21.25C17.1087 21.25 21.2587 17.1 21.2587 12C21.2587 6.9 17.1087 2.75 12.0087 2.75Z" fill="black"/>
</svg>
