<svg width="21" height="20" viewBox="0 0 21 20" fill="none" xmlns="http://www.w3.org/2000/svg">
<path d="M4.26683 11.6667C5.1873 11.6667 5.93349 10.9205 5.93349 10C5.93349 9.07953 5.1873 8.33334 4.26683 8.33334C3.34635 8.33334 2.60016 9.07953 2.60016 10C2.60016 10.9205 3.34635 11.6667 4.26683 11.6667Z" fill="black"/>
<path d="M10.1002 11.6667C11.0206 11.6667 11.7668 10.9205 11.7668 10C11.7668 9.07953 11.0206 8.33334 10.1002 8.33334C9.17969 8.33334 8.4335 9.07953 8.4335 10C8.4335 10.9205 9.17969 11.6667 10.1002 11.6667Z" fill="black"/>
<path d="M15.9335 11.6667C16.854 11.6667 17.6001 10.9205 17.6001 10C17.6001 9.07953 16.854 8.33334 15.9335 8.33334C15.013 8.33334 14.2668 9.07953 14.2668 10C14.2668 10.9205 15.013 11.6667 15.9335 11.6667Z" fill="black"/>
</svg>
