<svg width="25" height="24" viewBox="0 0 25 24" fill="none" xmlns="http://www.w3.org/2000/svg">
<path d="M21.7065 16.468C21.6865 16.452 19.5665 14.828 19.6035 10.438C19.6235 7.90599 18.7915 5.65599 17.2565 4.10299C15.8815 2.70999 14.0195 1.93999 12.0145 1.92999H12.0015C9.9975 1.93999 8.1355 2.70999 6.7595 4.10399C5.2255 5.65699 4.3915 7.90599 4.4135 10.438C4.4505 14.768 2.3935 16.405 2.3115 16.468C2.0515 16.661 1.9455 16.998 2.0465 17.306C2.1485 17.614 2.4365 17.821 2.7585 17.821H7.6785C7.7805 20.131 9.6755 21.981 12.0085 21.981C14.3415 21.981 16.2345 20.131 16.3355 17.821H21.2575C21.5795 17.821 21.8675 17.615 21.9675 17.307C22.0705 17 21.9645 16.662 21.7045 16.469L21.7065 16.468ZM12.0095 20.478C10.5045 20.478 9.2795 19.301 9.1815 17.82H14.8375C14.7375 19.3 13.5145 20.48 12.0095 20.48V20.478ZM4.3895 16.32C5.1295 15.188 5.9375 13.292 5.9135 10.424C5.8955 8.26399 6.5575 6.44199 7.8265 5.15699C8.9195 4.04999 10.4065 3.43699 12.0095 3.42999C13.6125 3.43799 15.0965 4.04999 16.1895 5.15799C17.4595 6.44299 18.1225 8.26399 18.1045 10.425C18.0805 13.293 18.8895 15.19 19.6295 16.321H4.3895V16.32Z" fill="black"/>
</svg>
