<svg width="21" height="20" viewBox="0 0 21 20" fill="none" xmlns="http://www.w3.org/2000/svg">
<path d="M16.7331 1.66666H3.81641C2.78307 1.66666 1.94141 2.50832 1.94141 3.54166V16.4583C1.94141 17.4917 2.78307 18.3333 3.81641 18.3333H16.7331C17.7664 18.3333 18.6081 17.4917 18.6081 16.4583V3.54166C18.6081 2.50832 17.7664 1.66666 16.7331 1.66666ZM3.81641 2.91666H16.7331C17.0772 2.91666 17.3581 3.19749 17.3581 3.54166V11.605L14.1431 8.38999C14.0264 8.27332 13.8681 8.20666 13.7014 8.20666H13.6989C13.5322 8.20666 13.3714 8.27332 13.2556 8.39332L9.65807 12.0467L8.14724 10.5417C8.03057 10.425 7.87224 10.3583 7.70557 10.3583C7.54474 10.3333 7.37641 10.425 7.25974 10.5475L3.19141 14.7017V3.54166C3.19141 3.19749 3.47224 2.91666 3.81641 2.91666ZM3.19641 16.4833L7.71141 11.8717L12.9464 17.0833H3.81641C3.48141 17.0833 3.21057 16.815 3.19641 16.4833ZM16.7331 17.0833H14.7164L10.5439 12.9275L13.7039 9.71916L17.3581 13.3725V16.4583C17.3581 16.8025 17.0772 17.0833 16.7331 17.0833Z" fill="#1D9BF0"/>
<path d="M7.66473 8.20916C8.37442 8.20916 8.94973 7.63385 8.94973 6.92416C8.94973 6.21447 8.37442 5.63916 7.66473 5.63916C6.95504 5.63916 6.37973 6.21447 6.37973 6.92416C6.37973 7.63385 6.95504 8.20916 7.66473 8.20916Z" fill="#1D9BF0"/>
</svg>
