<svg width="21" height="20" viewBox="0 0 21 20" fill="none" xmlns="http://www.w3.org/2000/svg">
<path d="M17.1834 7.62728H16.0718C16.0843 7.55234 16.0951 7.47573 16.0951 7.39663V5.47065C16.0951 4.65463 15.4309 3.99099 14.6134 3.99099H3.24843V2.79611C3.24843 2.45138 2.96843 2.1716 2.62343 2.1716C2.27843 2.1716 1.99843 2.45138 1.99843 2.79611V17.3446C1.99843 17.6901 2.27843 17.9691 2.62343 17.9691C2.96843 17.9691 3.24843 17.6901 3.24843 17.3446V16.1505H12.0451C12.8618 16.1505 13.5268 15.4869 13.5268 14.6709V12.7449C13.5268 12.6658 13.5151 12.5892 13.5034 12.5134H17.1843C18.0009 12.5134 18.6659 11.8489 18.6659 11.0329V9.10944C18.6659 8.29092 18.0018 7.62728 17.1843 7.62728H17.1834ZM14.6151 5.24C14.7418 5.24 14.8459 5.34326 14.8459 5.47065V7.39413C14.8459 7.52236 14.7418 7.62728 14.6143 7.62728H3.24843V5.23751H14.6151V5.24ZM12.2759 12.7457V14.6709C12.2759 14.7983 12.1718 14.9015 12.0443 14.9015H3.24843V12.5134H12.0451C12.1726 12.5134 12.2759 12.6183 12.2759 12.7466V12.7457ZM17.4151 11.0329C17.4151 11.1603 17.3109 11.2636 17.1834 11.2636H3.24843V8.87629H17.1834C17.3109 8.87629 17.4151 8.97954 17.4151 9.10694V11.0329Z" fill="#1D9BF0"/>
</svg>
