<svg width="25" height="24" viewBox="0 0 25 24" fill="none" xmlns="http://www.w3.org/2000/svg">
<path d="M12.0103 11.816C13.3653 11.816 14.8823 11.666 15.8503 10.56C16.6643 9.63001 16.9283 8.19201 16.6563 6.16801C16.2763 3.34301 14.5393 1.65601 12.0103 1.65601C9.48134 1.65601 7.74434 3.34301 7.36434 6.17001C7.09234 8.19201 7.35634 9.63001 8.17034 10.56C9.13834 11.667 10.6553 11.816 12.0103 11.816V11.816ZM8.85034 6.36801C9.01234 5.16801 9.63734 3.15601 12.0103 3.15601C14.3833 3.15601 15.0083 5.16901 15.1703 6.36801C15.3773 7.91801 15.2273 8.99501 14.7203 9.57301C14.2653 10.093 13.4543 10.316 12.0103 10.316C10.5663 10.316 9.75534 10.093 9.30034 9.57301C8.79334 8.99501 8.64334 7.91701 8.85034 6.36801ZM20.2903 19.236C19.4133 15.71 16.0083 13.246 12.0103 13.246C8.01234 13.246 4.60734 15.71 3.73034 19.236C3.55834 19.928 3.70234 20.636 4.12534 21.176C4.53334 21.696 5.16534 21.996 5.85834 21.996H18.1623C18.8553 21.996 19.4873 21.696 19.8953 21.176C20.3193 20.636 20.4623 19.929 20.2893 19.236H20.2903ZM18.7143 20.252C18.5883 20.412 18.3983 20.498 18.1623 20.498H5.85834C5.62334 20.498 5.43234 20.413 5.30634 20.252C5.16934 20.078 5.12634 19.84 5.18634 19.598C5.89634 16.743 8.70334 14.748 12.0103 14.748C15.3173 14.748 18.1243 16.742 18.8343 19.598C18.8943 19.84 18.8513 20.078 18.7143 20.252V20.252Z" fill="black"/>
</svg>
