<svg width="21" height="20" viewBox="0 0 21 20" fill="none" xmlns="http://www.w3.org/2000/svg">
<g clip-path="url(#clip0)">
<path d="M-31.193 14.9881C-31.2763 14.9049 -31.2763 14.9049 -31.2763 14.8216C-31.193 14.8216 -31.193 14.9049 -31.193 14.9881ZM15.3904 1.8319H14.307V1.58209C14.307 1.24902 14.057 0.915955 13.6404 0.915955C13.307 0.915955 12.9737 1.16576 12.9737 1.58209V1.8319H6.80704V1.58209C6.80704 1.24902 6.55705 0.915955 6.14038 0.915955C5.80705 0.915955 5.47371 1.16576 5.47371 1.58209V1.8319H4.39038C3.22371 1.8319 2.30704 2.74784 2.30704 3.91358V14.8216C2.30704 15.9874 3.22371 16.9033 4.39038 16.9033H6.80704C7.14038 16.9033 7.47371 16.6535 7.47371 16.2372C7.47371 15.9041 7.22371 15.571 6.80704 15.571H4.39038C3.89038 15.571 3.55704 15.1547 3.55704 14.7383V6.57814C3.55704 6.32834 3.89038 5.99527 4.39038 5.99527H15.3904C15.8904 5.99527 16.2237 6.32834 16.2237 6.57814V8.07695C16.2237 8.41002 16.4737 8.74309 16.8904 8.74309C17.2237 8.74309 17.557 8.49329 17.557 8.07695V3.91358C17.4737 2.74784 16.557 1.8319 15.3904 1.8319V1.8319ZM16.2237 4.91279C15.9737 4.82952 15.6404 4.74626 15.3904 4.74626H4.39038C4.05704 4.74626 3.80704 4.82952 3.55704 4.91279V3.91358C3.55704 3.41398 3.97371 3.08091 4.39038 3.08091H5.47371V3.49724C5.47371 3.83031 5.72371 4.16338 6.14038 4.16338C6.47371 4.16338 6.80704 3.91358 6.80704 3.49724V3.08091H13.057V3.49724C13.057 3.83031 13.307 4.16338 13.7237 4.16338C14.057 4.16338 14.3904 3.91358 14.3904 3.49724V3.08091H15.3904C15.8904 3.08091 16.2237 3.49724 16.2237 3.91358V4.91279Z" fill="#1D9BF0"/>
<path d="M13.307 8.65982C10.4737 8.65982 8.14037 10.9913 8.14037 13.8224C8.14037 16.6535 10.4737 18.985 13.307 18.985C16.1404 18.985 18.4737 16.6535 18.4737 13.8224C18.4737 10.9913 16.1404 8.65982 13.307 8.65982V8.65982ZM13.307 17.8192C11.1404 17.8192 9.39037 16.0706 9.39037 13.9057C9.39037 11.7407 11.1404 9.9921 13.307 9.9921C15.4737 9.9921 17.2237 11.7407 17.2237 13.9057C17.2237 15.9874 15.4737 17.8192 13.307 17.8192Z" fill="#1D9BF0"/>
<path d="M16.1404 15.571C16.057 15.7375 15.807 15.9041 15.6404 15.9041C15.557 15.9041 15.3904 15.9041 15.307 15.8208L12.7237 14.1555V11.6574C12.7237 11.3244 12.9737 10.9913 13.3904 10.9913C13.7237 10.9913 14.057 11.2411 14.057 11.6574V13.4893L16.057 14.7383C16.2237 14.9049 16.307 15.2379 16.1404 15.571V15.571Z" fill="#1D9BF0"/>
</g>
<defs>
<clipPath id="clip0">
<rect width="20" height="19.9842" fill="white" transform="translate(0.390381)"/>
</clipPath>
</defs>
</svg>
