<svg width="21" height="20" viewBox="0 0 21 20" fill="none" xmlns="http://www.w3.org/2000/svg">
<path d="M18.8007 17.0583L15.7507 14.0083C16.8549 12.7 17.5257 11.0117 17.5257 9.16666C17.5257 5.02499 14.1674 1.66666 10.0257 1.66666C5.88406 1.66666 2.52573 5.02499 2.52573 9.16666C2.52573 13.3083 5.88406 16.6667 10.0257 16.6667C11.8716 16.6667 13.5591 15.9967 14.8657 14.8917L17.9157 17.9417C18.0382 18.0633 18.1991 18.125 18.3574 18.125C18.5157 18.125 18.6782 18.0642 18.7991 17.9417C19.0449 17.6975 19.0449 17.3025 18.8007 17.0583V17.0583ZM3.77573 9.16666C3.77573 5.72082 6.57989 2.91666 10.0257 2.91666C13.4716 2.91666 16.2757 5.72082 16.2757 9.16666C16.2757 12.6125 13.4716 15.4167 10.0257 15.4167C6.57989 15.4167 3.77573 12.6125 3.77573 9.16666Z" fill="#536471"/>
</svg>
