<svg width="25" height="24" viewBox="0 0 25 24" fill="none" xmlns="http://www.w3.org/2000/svg">
<path d="M12.859 8.20999C10.769 8.20999 9.06903 9.90999 9.06903 12C9.06903 14.09 10.769 15.79 12.859 15.79C14.949 15.79 16.649 14.09 16.649 12C16.649 9.90999 14.949 8.20999 12.859 8.20999ZM12.859 14.29C11.597 14.29 10.569 13.264 10.569 12C10.569 10.736 11.599 9.70999 12.859 9.70999C14.119 9.70999 15.149 10.736 15.149 12C15.149 13.264 14.121 14.29 12.859 14.29Z" fill="#0F1419"/>
<path d="M13.2191 22.375H12.4971C11.3141 22.375 10.3431 21.487 10.2351 20.311L10.2211 20.164C10.1961 19.877 10.0141 19.631 9.74906 19.52C9.46306 19.4 9.16706 19.455 8.95106 19.635L8.83506 19.732C7.96706 20.457 6.58206 20.395 5.77506 19.592L5.26506 19.082C4.42906 18.242 4.36906 16.928 5.12506 16.022L5.22306 15.904C5.40906 15.682 5.45306 15.381 5.34506 15.117C5.23506 14.845 4.98706 14.663 4.69906 14.637L4.54906 14.623C3.36906 14.516 2.48206 13.543 2.48206 12.361V11.639C2.48206 10.456 3.37006 9.485 4.54606 9.377L4.70206 9.363C4.98706 9.338 5.23206 9.156 5.34406 8.89C5.45406 8.62 5.40906 8.317 5.22406 8.095L5.13006 7.979C4.37306 7.071 4.43206 5.756 5.26706 4.919L5.77906 4.407C6.58306 3.603 7.96706 3.542 8.83906 4.267L8.95506 4.365C9.17306 4.549 9.48306 4.595 9.74506 4.487C10.0151 4.375 10.1971 4.129 10.2221 3.844L10.2361 3.691C10.3431 2.511 11.3161 1.625 12.4981 1.625H13.2201C14.4031 1.625 15.3741 2.513 15.4821 3.689L15.4961 3.845C15.5211 4.13 15.7021 4.375 15.9681 4.485C16.2451 4.602 16.5481 4.547 16.7621 4.368L16.8821 4.266C17.7491 3.543 19.1361 3.604 19.9421 4.406L20.4521 4.918C21.2881 5.756 21.3481 7.071 20.5921 7.978L20.4921 8.096C20.3041 8.316 20.2581 8.618 20.3691 8.884C20.4811 9.154 20.7291 9.334 21.0151 9.362L21.1671 9.376C22.3471 9.483 23.2341 10.456 23.2341 11.638V12.361C23.2341 13.544 22.3461 14.515 21.1701 14.623L21.0151 14.637C20.7311 14.661 20.4851 14.842 20.3751 15.107C20.2621 15.379 20.3081 15.681 20.4921 15.902L20.5921 16.022C21.3481 16.927 21.2881 18.242 20.4521 19.082L19.9421 19.592C19.1351 20.396 17.7521 20.456 16.8821 19.732L16.7671 19.636C16.5501 19.453 16.2371 19.406 15.9771 19.514C15.7041 19.628 15.5221 19.874 15.4971 20.16L15.4831 20.31C15.3761 21.483 14.4031 22.37 13.2211 22.37L13.2191 22.375ZM9.44606 17.955C9.74606 17.955 10.0391 18.015 10.3161 18.13C11.1061 18.458 11.6401 19.184 11.7161 20.026L11.7301 20.173C11.7671 20.573 12.0971 20.873 12.5001 20.873H13.2221C13.6221 20.873 13.9521 20.573 13.9901 20.173L14.0041 20.025C14.0801 19.183 14.6141 18.458 15.3961 18.133C16.1891 17.803 17.0921 17.951 17.7291 18.483L17.8421 18.577C18.0201 18.725 18.2081 18.757 18.3351 18.757C18.5411 18.757 18.7351 18.677 18.8811 18.53L19.3911 18.02C19.6751 17.736 19.6961 17.29 19.4391 16.982L19.3391 16.862C18.7971 16.212 18.6621 15.322 18.9871 14.539C19.3131 13.749 20.0391 13.219 20.8811 13.142L21.0361 13.128C21.4331 13.091 21.7361 12.761 21.7361 12.358V11.636C21.7361 11.236 21.4331 10.906 21.0341 10.868L20.8821 10.854C20.0361 10.776 19.3121 10.244 18.9871 9.461C18.6611 8.673 18.7971 7.783 19.3401 7.134L19.4401 7.016C19.6971 6.706 19.6761 6.26 19.3921 5.976L18.8821 5.466C18.7361 5.319 18.5421 5.239 18.3361 5.239C18.2091 5.239 18.0211 5.271 17.8441 5.419L17.7241 5.519C17.0901 6.047 16.1741 6.189 15.4021 5.873C14.6141 5.546 14.0821 4.821 14.0051 3.977L13.9911 3.822C13.9561 3.425 13.6261 3.122 13.2241 3.122H12.5011C12.1011 3.122 11.7711 3.425 11.7331 3.824L11.7191 3.976C11.6431 4.819 11.1111 5.544 10.3291 5.869C9.54206 6.195 8.63606 6.052 7.99906 5.519L7.88106 5.423C7.70106 5.273 7.51306 5.243 7.38606 5.243C7.18006 5.243 6.98606 5.323 6.84006 5.469L6.32806 5.979C6.04606 6.263 6.02506 6.709 6.28206 7.017L6.38206 7.135C6.92206 7.788 7.05906 8.679 6.73406 9.46C6.40706 10.248 5.68206 10.78 4.83906 10.857L4.68306 10.871C4.28606 10.908 3.98306 11.238 3.98306 11.641V12.363C3.98306 12.763 4.28606 13.093 4.68506 13.131L4.83506 13.145C5.68306 13.223 6.40806 13.757 6.73206 14.541C7.05706 15.327 6.92206 16.216 6.37906 16.866L6.28306 16.981C6.02306 17.291 6.04506 17.737 6.32906 18.021L6.83906 18.531C6.98506 18.678 7.17906 18.758 7.38506 18.758C7.51206 18.758 7.70006 18.728 7.87706 18.578L7.99306 18.482C8.39906 18.146 8.91606 17.958 9.44606 17.958V17.955Z" fill="#0F1419"/>
</svg>
