<svg width="25" height="24" viewBox="0 0 25 24" fill="none" xmlns="http://www.w3.org/2000/svg">
<path d="M23.4355 10.506L17.8175 8.31399L15.6575 1.81399C15.5555 1.50699 15.2675 1.29999 14.9455 1.29999C14.6235 1.29999 14.3355 1.50699 14.2335 1.81299L12.0735 8.31299L6.45351 10.505C6.16651 10.617 5.97651 10.895 5.97651 11.205C5.97651 11.515 6.16651 11.79 6.45451 11.903L12.0745 14.095L14.2345 20.595C14.3365 20.901 14.6245 21.108 14.9465 21.108C15.2685 21.108 15.5565 20.901 15.6585 20.595L17.8185 14.095L23.4385 11.903C23.7255 11.791 23.9155 11.513 23.9155 11.203C23.9155 10.893 23.7255 10.618 23.4375 10.506H23.4355ZM16.9455 12.826C16.7375 12.906 16.5755 13.076 16.5055 13.286L14.9455 17.981L13.3855 13.288C13.3155 13.078 13.1555 12.908 12.9475 12.826L8.79251 11.206L12.9465 9.58399C13.1545 9.50399 13.3165 9.33399 13.3865 9.12199L14.9465 4.42899L16.5065 9.12299C16.5765 9.33499 16.7365 9.50499 16.9445 9.58599L21.0995 11.206L16.9445 12.828L16.9455 12.826ZM7.32651 3.81199H5.44651V2.04999C5.44651 1.63599 5.10951 1.29999 4.69651 1.29999C4.28351 1.29999 3.94651 1.63599 3.94651 2.04999V3.81199H2.16351C1.74951 3.81199 1.41351 4.14799 1.41351 4.56199C1.41351 4.97599 1.74951 5.31199 2.16351 5.31199H3.94551V7.07399C3.94551 7.48799 4.28151 7.82399 4.69551 7.82399C5.10951 7.82399 5.44551 7.48799 5.44551 7.07399V5.31199H7.32551C7.74051 5.31199 8.07551 4.97599 8.07551 4.56199C8.07551 4.14799 7.74051 3.81199 7.32551 3.81199H7.32651ZM9.86151 19.434H8.76151V18.418C8.76151 18.004 8.42651 17.668 8.01151 17.668C7.59651 17.668 7.26151 18.004 7.26151 18.418V19.434H6.23351C5.81951 19.434 5.48351 19.77 5.48351 20.184C5.48351 20.598 5.81951 20.934 6.23351 20.934H7.26351V21.95C7.26351 22.364 7.59851 22.7 8.01351 22.7C8.42851 22.7 8.76351 22.364 8.76351 21.95V20.934H9.86151C10.2755 20.934 10.6115 20.598 10.6115 20.184C10.6115 19.77 10.2755 19.434 9.86151 19.434V19.434Z" fill="black"/>
</svg>
