<svg width="18" height="18" viewBox="0 0 18 18" fill="none" xmlns="http://www.w3.org/2000/svg">
<path d="M16.875 9.375C16.875 8.19 16.2188 7.1625 15.264 6.675C15.3795 6.34875 15.4425 5.99625 15.4425 5.625C15.4425 3.9675 14.16 2.6265 12.579 2.6265C12.2265 2.6265 11.889 2.6895 11.577 2.814C11.1135 1.81125 10.1325 1.125 9.00002 1.125C7.86752 1.125 6.88802 1.81275 6.42227 2.8125C6.11102 2.68875 5.77277 2.625 5.42027 2.625C3.83777 2.625 2.55677 3.9675 2.55677 5.625C2.55677 5.9955 2.61902 6.348 2.73452 6.675C1.78052 7.1625 1.12427 8.1885 1.12427 9.375C1.12427 10.4963 1.71077 11.4735 2.58077 11.9895C2.56577 12.117 2.55677 12.2445 2.55677 12.375C2.55677 14.0325 3.83777 15.375 5.42027 15.375C5.77277 15.375 6.11027 15.3105 6.42152 15.1875C6.88652 16.188 7.86602 16.875 8.99927 16.875C10.1333 16.875 11.1128 16.188 11.577 15.1875C11.8883 15.3098 12.2258 15.3735 12.579 15.3735C14.1615 15.3735 15.4425 14.031 15.4425 12.3735C15.4425 12.243 15.4335 12.1155 15.4178 11.9887C16.2863 11.4735 16.875 10.4963 16.875 9.37575V9.375ZM11.913 6.8745L8.66252 11.7495C8.55377 11.9123 8.37602 12 8.19377 12C8.08652 12 7.97777 11.97 7.88177 11.9055L7.79552 11.835L5.98427 10.0237C5.76452 9.804 5.76452 9.44775 5.98427 9.22875C6.20402 9.00975 6.56027 9.00825 6.77927 9.22875L8.10677 10.554L10.9755 6.249C11.148 5.99025 11.4975 5.922 11.7555 6.09375C12.015 6.26625 12.0855 6.61575 11.913 6.87375V6.8745Z" fill="#1B95E0"/>
</svg>
